<svg xmlns="http://www.w3.org/2000/svg" width="100" height="100" viewBox="0 0 48 48"><linearGradient id="a" x1="21.861" x2="25.703" y1="8.237" y2="36.552" gradientUnits="userSpaceOnUse"><stop offset="0" stop-color="#00c1e0"/><stop offset="1" stop-color="#009bb8"/></linearGradient><path fill="url(#a)" d="M24 9.604c-5.589 0-9.347 2.439-11.276 7.318-.2.505.417.92.816.551 2.035-1.882 4.322-2.505 6.86-1.871 1.826.456 3.131 1.781 4.576 3.247C27.328 21.236 30.051 24 36 24c5.589 0 9.348-2.44 11.276-7.319.2-.505-.417-.92-.816-.551-2.035 1.882-4.322 2.506-6.86 1.872-1.825-.456-3.13-1.781-4.575-3.247C32.672 12.367 29.948 9.604 24 9.604zM12 24C6.411 24 2.652 26.44.724 31.319c-.2.505.417.92.816.551 2.035-1.882 4.322-2.506 6.86-1.871 1.825.457 3.13 1.781 4.575 3.246 2.353 2.388 5.077 5.152 11.025 5.152 5.589 0 9.348-2.44 11.276-7.319.2-.505-.417-.92-.816-.551-2.035 1.882-4.322 2.506-6.86 1.871-1.826-.456-3.131-1.781-4.576-3.246C20.672 26.764 17.949 24 12 24z"/></svg>